<?xml version="1.0" standalone="no"?>
<!DOCTYPE svg PUBLIC "-//W3C//DTD SVG 20010904//EN"
 "http://www.w3.org/TR/2001/REC-SVG-20010904/DTD/svg10.dtd">
<svg version="1.0" xmlns="http://www.w3.org/2000/svg"
 width="1024.000000pt" height="1024.000000pt" viewBox="0 0 1024.000000 1024.000000"
 preserveAspectRatio="xMidYMid meet">
<metadata>
Created by potrace 1.11, written by Peter Selinger 2001-2013
</metadata>
<g transform="translate(0.000000,1024.000000) scale(0.100000,-0.100000)"
fill="#000000" stroke="none">
<path d="M2580 5115 l0 -2555 400 0 400 0 2 1837 3 1838 761 -1390 761 -1390
224 -2 224 -3 755 1386 755 1387 3 -1832 2 -1831 410 0 410 0 0 2555 0 2555
-434 0 -433 0 -844 -1559 c-464 -858 -846 -1557 -849 -1555 -3 3 -383 703
-845 1557 l-841 1552 -432 3 -432 2 0 -2555z"/>
</g>
</svg>
